<?xml version="1.0" encoding="UTF-8"?>
<!DOCTYPE svg PUBLIC "-//W3C//DTD SVG 1.1//EN" "http://www.w3.org/Graphics/SVG/1.1/DTD/svg11.dtd">
<svg xmlns="http://www.w3.org/2000/svg" version="1.1" width="400px" height="400px" style="shape-rendering:geometricPrecision; text-rendering:geometricPrecision; image-rendering:optimizeQuality; fill-rule:evenodd; clip-rule:evenodd" xmlns:xlink="http://www.w3.org/1999/xlink">
<g><path style="opacity:1" fill="#3f3f3f" d="M 180.5,-0.5 C 193.167,-0.5 205.833,-0.5 218.5,-0.5C 240.097,1.7329 260.764,7.39957 280.5,16.5C 279.883,16.6107 279.383,16.944 279,17.5C 260.038,66.4764 240.538,115.31 220.5,164C 220.57,164.765 220.903,165.265 221.5,165.5C 200.698,177.782 193.032,195.782 198.5,219.5C 197.685,220.429 196.852,221.429 196,222.5C 175.584,276.111 154.084,328.944 131.5,381C 132.051,383.391 131.051,385.225 128.5,386.5C 86.2184,370.889 53.2184,343.889 29.5,305.5C 36.7696,287.2 44.103,268.867 51.5,250.5C 49.7086,249.83 48.0419,249.163 46.5,248.5C 76.2723,249.391 92.6056,235.057 95.5,205.5C 95.6524,192.592 90.9857,181.925 81.5,173.5C 83.7466,169.989 85.9133,166.322 88,162.5C 109.151,110.22 129.985,57.8867 150.5,5.5C 160.381,2.85353 170.381,0.853532 180.5,-0.5 Z"/></g>
<g><path style="opacity:0.986" fill="#000000" d="M 150.5,5.5 C 129.985,57.8867 109.151,110.22 88,162.5C 85.9133,166.322 83.7466,169.989 81.5,173.5C 74.3919,168.293 66.3919,165.126 57.5,164C 42.8371,163.5 28.1705,163.333 13.5,163.5C 13.5,191.833 13.5,220.167 13.5,248.5C 22.1667,248.5 30.8333,248.5 39.5,248.5C 39.5,228.5 39.5,208.5 39.5,188.5C 45.1764,188.334 50.8431,188.501 56.5,189C 67.6549,193.144 71.4883,200.978 68,212.5C 66.0732,217.428 62.5732,220.594 57.5,222C 52.8984,223.122 48.2318,223.622 43.5,223.5C 43.5,231.833 43.5,240.167 43.5,248.5C 44.5,248.5 45.5,248.5 46.5,248.5C 48.0419,249.163 49.7086,249.83 51.5,250.5C 44.103,268.867 36.7696,287.2 29.5,305.5C 12.9367,279.144 2.9367,250.478 -0.5,219.5C -0.5,206.167 -0.5,192.833 -0.5,179.5C 10.0845,102.753 50.4179,47.9201 120.5,15C 130.166,10.7223 140.166,7.55565 150.5,5.5 Z"/></g>
<g><path style="opacity:0.993" fill="#000000" d="M 280.5,16.5 C 349.674,49.1434 389.341,103.477 399.5,179.5C 399.5,192.833 399.5,206.167 399.5,219.5C 388.915,296.247 348.582,351.08 278.5,384C 259.105,392.014 239.105,397.181 218.5,399.5C 205.833,399.5 193.167,399.5 180.5,399.5C 170.58,398.011 160.58,396.178 150.5,394C 142.755,392.364 135.422,389.864 128.5,386.5C 131.051,385.225 132.051,383.391 131.5,381C 154.084,328.944 175.584,276.111 196,222.5C 196.852,221.429 197.685,220.429 198.5,219.5C 208.834,244.003 227.167,253.836 253.5,249C 278.242,239.697 288.742,221.864 285,195.5C 273.717,164.944 252.55,154.944 221.5,165.5C 220.903,165.265 220.57,164.765 220.5,164C 240.538,115.31 260.038,66.4764 279,17.5C 279.383,16.944 279.883,16.6107 280.5,16.5 Z"/></g>
<g><path style="opacity:1" fill="#fdfdc3" d="M 136.5,161.5 C 163.115,158.975 180.615,170.309 189,195.5C 192.742,221.864 182.242,239.697 157.5,249C 129.598,253.972 111.098,243.139 102,216.5C 98.1846,188.495 109.685,170.162 136.5,161.5 Z"/></g>
<g><path style="opacity:1" fill="#fdfdc2" d="M 198.5,219.5 C 193.032,195.782 200.698,177.782 221.5,165.5C 252.55,154.944 273.717,164.944 285,195.5C 288.742,221.864 278.242,239.697 253.5,249C 227.167,253.836 208.834,244.003 198.5,219.5 Z"/></g>
<g><path style="opacity:1" fill="#fdfdc2" d="M 314.5,161.5 C 325.838,159.439 334.672,163.105 341,172.5C 349.154,161.896 359.654,158.729 372.5,163C 380.899,167.615 385.399,174.782 386,184.5C 386.5,205.831 386.667,227.164 386.5,248.5C 377.833,248.5 369.167,248.5 360.5,248.5C 360.667,228.497 360.5,208.497 360,188.5C 357.724,185.936 355.724,186.27 354,189.5C 353.5,209.164 353.333,228.831 353.5,248.5C 345.167,248.5 336.833,248.5 328.5,248.5C 328.667,228.497 328.5,208.497 328,188.5C 325.478,185.674 323.478,186.007 322,189.5C 321.5,209.164 321.333,228.831 321.5,248.5C 313.167,248.5 304.833,248.5 296.5,248.5C 296.333,225.498 296.5,202.498 297,179.5C 299.71,170.292 305.543,164.292 314.5,161.5 Z"/></g>
<g><path style="opacity:1" fill="#fcfcc2" d="M 81.5,173.5 C 90.9857,181.925 95.6524,192.592 95.5,205.5C 92.6056,235.057 76.2723,249.391 46.5,248.5C 45.5,248.5 44.5,248.5 43.5,248.5C 43.5,240.167 43.5,231.833 43.5,223.5C 48.2318,223.622 52.8984,223.122 57.5,222C 62.5732,220.594 66.0732,217.428 68,212.5C 71.4883,200.978 67.6549,193.144 56.5,189C 50.8431,188.501 45.1764,188.334 39.5,188.5C 39.5,208.5 39.5,228.5 39.5,248.5C 30.8333,248.5 22.1667,248.5 13.5,248.5C 13.5,220.167 13.5,191.833 13.5,163.5C 28.1705,163.333 42.8371,163.5 57.5,164C 66.3919,165.126 74.3919,168.293 81.5,173.5 Z"/></g>
<g><path style="opacity:1" fill="#414141" d="M 141.5,186.5 C 158.136,186.638 165.303,194.972 163,211.5C 157.762,223.704 148.928,227.537 136.5,223C 126.678,214.778 124.845,204.945 131,193.5C 133.998,190.262 137.498,187.929 141.5,186.5 Z"/></g>
<g><path style="opacity:1" fill="#030302" d="M 237.5,186.5 C 253.974,186.764 261.14,195.097 259,211.5C 253.762,223.704 244.928,227.537 232.5,223C 222.678,214.778 220.845,204.945 227,193.5C 229.998,190.262 233.498,187.929 237.5,186.5 Z"/></g>
</svg>
