<?xml version="1.0" encoding="UTF-8" standalone="no"?>
<svg
   data-v-fde0c5aa=""
   viewBox="0 0 200 200"
   class="iconLeftSlogan"
   version="1.1"
   id="svg30"
   sodipodi:docname="_logo.svg"
   width="200"
   height="200"
   inkscape:version="1.1.2 (0a00cf5339, 2022-02-04)"
   xmlns:inkscape="http://www.inkscape.org/namespaces/inkscape"
   xmlns:sodipodi="http://sodipodi.sourceforge.net/DTD/sodipodi-0.dtd"
   xmlns:xlink="http://www.w3.org/1999/xlink"
   xmlns="http://www.w3.org/2000/svg"
   xmlns:svg="http://www.w3.org/2000/svg">
  <sodipodi:namedview
     id="namedview32"
     pagecolor="#ffffff"
     bordercolor="#666666"
     borderopacity="1.0"
     inkscape:pageshadow="2"
     inkscape:pageopacity="0.0"
     inkscape:pagecheckerboard="true"
     showgrid="false"
     width="200px"
     inkscape:zoom="1.63"
     inkscape:cx="70.552147"
     inkscape:cy="57.055215"
     inkscape:window-width="1280"
     inkscape:window-height="727"
     inkscape:window-x="0"
     inkscape:window-y="0"
     inkscape:window-maximized="1"
     inkscape:current-layer="svg30" />
  <!---->
  <defs
     data-v-fde0c5aa=""
     id="defs2">
    <!---->
    <linearGradient
       inkscape:collect="always"
       xlink:href="#c9c78d90-db99-4ddd-a0d8-46e1ceae6713"
       id="linearGradient130"
       x1="2"
       y1="2"
       x2="30"
       y2="2"
       gradientUnits="userSpaceOnUse" />
    <linearGradient
       inkscape:collect="always"
       xlink:href="#c9c78d90-db99-4ddd-a0d8-46e1ceae6713"
       id="linearGradient132"
       x1="5.7069998"
       y1="10.707"
       x2="8"
       y2="10.707"
       gradientUnits="userSpaceOnUse" />
    <linearGradient
       inkscape:collect="always"
       xlink:href="#c9c78d90-db99-4ddd-a0d8-46e1ceae6713"
       id="linearGradient134"
       gradientTransform="scale(0.95553309,1.0465362)"
       x1="2.0930724"
       y1="6.6887317"
       x2="24.070333"
       y2="6.6887317"
       gradientUnits="userSpaceOnUse" />
    <linearGradient
       inkscape:collect="always"
       xlink:href="#c9c78d90-db99-4ddd-a0d8-46e1ceae6713"
       id="linearGradient136"
       x1="2"
       y1="2"
       x2="30"
       y2="2"
       gradientUnits="userSpaceOnUse" />
  </defs>
  <defs
     data-v-fde0c5aa=""
     id="defs6">
    <!---->
  </defs>
  <defs
     data-v-fde0c5aa=""
     id="defs16">
    <linearGradient
       data-v-fde0c5aa=""
       gradientTransform="rotate(25)"
       id="c9c78d90-db99-4ddd-a0d8-46e1ceae6713"
       x1="0"
       y1="0"
       x2="1"
       y2="0">
      <stop
         data-v-fde0c5aa=""
         offset="0%"
         stop-color="#3E6E81"
         stop-opacity="1"
         id="stop11" />
      <stop
         data-v-fde0c5aa=""
         offset="100%"
         stop-color="#4587A1"
         stop-opacity="1"
         id="stop13" />
    </linearGradient>
  </defs>
  <g
     data-v-fde0c5aa=""
     id="f9f5bdca-8f8e-4f99-8758-3c00dc37a1f6"
     stroke="none"
     fill="url(#c9c78d90-db99-4ddd-a0d8-46e1ceae6713)"
     transform="matrix(4.0515126,0,0,4.1709067,40.263794,28.11143)"
     style="fill:url(#linearGradient136)">
    <path
       d="m 24,15 h -3 v 2 h 3 a 1,1 0 1 0 0,-2 z m 5,2 h -2 a 1,1 0 1 1 0,-2 h 1 v -1 a 1,1 0 1 1 2,0 v 2 a 1,1 0 0 1 -1,1 z m 0,-5 A 1,1 0 0 1 28,11 V 9 a 1,1 0 1 1 2,0 v 2 a 1,1 0 0 1 -1,1 z m -5,9 h -3 v 2 h 3 a 1,1 0 1 0 0,-2 z m 5,4 a 1,1 0 0 1 -1,-1 v -1 h -1 a 1,1 0 1 1 0,-2 h 2 a 1,1 0 0 1 1,1 v 2 a 1,1 0 0 1 -1,1 z m 0,5 a 1,1 0 0 1 -1,-1 v -2 a 1,1 0 1 1 2,0 v 2 a 1,1 0 0 1 -1,1 z M 24,18 h -3 v 2 h 3 a 1,1 0 1 0 0,-2 z m 5,2 h -2 a 1,1 0 1 1 0,-2 h 2 a 1,1 0 1 1 0,2 z M 11,6 13,2 H 12 L 10,6 Z M 9,6 11,2 H 3 A 1,1 0 0 0 2,3 V 6 Z M 7,3 A 1,1 0 1 1 7,5 1,1 0 0 1 7,3 Z M 4,3 A 1,1 0 1 1 4,5 1,1 0 0 1 4,3 Z M 23,6 V 3 A 1,1 0 0 0 22,2 H 14 L 12,6 Z M 9,13.5 A 0.5,0.5 0 0 1 8.5,14 H 5 V 27 H 18 V 10 H 9 Z m 3.18,3.385 a 0.50024019,0.50024019 0 0 1 0.64,-0.769 l 3,2.5 a 0.501,0.501 0 0 1 0,0.769 l -3,2.5 A 0.50024019,0.50024019 0 0 1 12.18,21.116 L 14.719,19 12.179,16.885 Z M 10.884,16.18 A 0.5,0.5 0 0 1 10.82,16.884 L 8.281,19 l 2.54,2.116 a 0.50049675,0.50049675 0 0 1 -0.642,0.768 l -3,-2.5 a 0.501,0.501 0 0 1 0,-0.768 l 3,-2.5 a 0.5,0.5 0 0 1 0.705,0.064 z"
       id="path18"
       style="fill:url(#linearGradient130)" />
    <path
       d="M 8,10.707 5.707,13 H 8 Z"
       id="path20"
       style="fill:url(#linearGradient132)" />
    <path
       d="m 21,14 h 2 V 7 H 2 v 22 a 1,1 0 0 0 1,1 h 19 a 1,1 0 0 0 1,-1 v -5 h -2 a 1,1 0 0 1 -1,-1 v -8 a 1,1 0 0 1 1,-1 z M 19,27.5 A 0.5,0.5 0 0 1 18.5,28 H 4.5 A 0.5,0.5 0 0 1 4,27.5 v -14 a 0.5,0.5 0 0 1 0.146,-0.354 l 4,-4 A 0.5,0.5 0 0 1 8.5,9 h 10 A 0.5,0.5 0 0 1 19,9.5 Z"
       id="path22"
       style="fill:url(#linearGradient134)" />
  </g>
  <defs
     data-v-fde0c5aa=""
     id="defs25">
    <!---->
  </defs>
</svg>
