<?xml version="1.0" standalone="no"?>
<!DOCTYPE svg PUBLIC "-//W3C//DTD SVG 20010904//EN"
 "http://www.w3.org/TR/2001/REC-SVG-20010904/DTD/svg10.dtd">
<svg version="1.0" xmlns="http://www.w3.org/2000/svg"
 width="700.000000pt" height="700.000000pt" viewBox="0 0 700.000000 700.000000"
 preserveAspectRatio="xMidYMid meet">
<metadata>
Created by potrace 1.14, written by Peter Selinger 2001-2017
</metadata>
<g transform="translate(0.000000,700.000000) scale(0.100000,-0.100000)"
fill="#000000" stroke="none">
<path d="M1812 5722 c-47 -5 -108 -67 -116 -118 -3 -22 -5 -135 -5 -251 l1
-213 497 0 496 0 77 158 c174 357 198 407 198 417 0 9 -1055 16 -1148 7z m229
-162 c58 -27 90 -115 67 -181 -23 -66 -106 -106 -172 -84 -45 16 -63 30 -83
68 -50 98 23 219 127 212 19 -1 47 -8 61 -15z m439 -9 c62 -45 79 -132 40
-197 -30 -48 -72 -67 -132 -62 -84 8 -140 87 -124 173 8 41 63 101 99 108 37
7 91 -2 117 -22z"/>
<path d="M3110 5715 c-5 -6 -54 -103 -108 -216 -55 -112 -116 -237 -136 -278
-20 -41 -36 -76 -36 -78 0 -1 32 -3 70 -3 l70 0 69 143 c38 78 98 203 134 278
36 74 67 142 69 149 2 11 -12 14 -60 15 -35 0 -68 -5 -72 -10z"/>
<path d="M3386 5705 c-6 -11 -21 -38 -31 -60 -24 -53 -213 -442 -231 -477
l-15 -28 781 0 780 0 0 236 c0 221 -1 239 -21 273 -11 21 -36 46 -56 56 -33
18 -65 19 -614 20 -570 0 -580 0 -593 -20z"/>
<path d="M1695 4990 c-2 -3 -3 -731 -3 -1619 0 -1143 3 -1622 11 -1640 15 -37
37 -61 72 -79 27 -14 172 -16 1390 -16 748 -1 1376 2 1395 7 43 10 73 34 94
75 14 27 16 80 16 414 l0 383 -164 0 c-184 0 -199 5 -241 76 -19 32 -19 54
-19 644 0 335 3 622 7 637 9 35 46 74 83 88 17 7 93 12 182 11 l152 0 -2 512
-3 511 -1483 1 c-816 0 -1485 -2 -1487 -5z m2375 -300 c11 -6 23 -24 27 -40 6
-23 10 -2536 4 -2657 -1 -13 -10 -32 -21 -43 -20 -20 -33 -20 -1036 -20 -643
0 -1022 4 -1034 10 -10 5 -22 22 -27 37 -6 21 -10 1922 -4 2074 1 29 -8 19
374 413 208 213 232 235 265 238 103 9 1434 -2 1452 -12z"/>
<path d="M2692 4550 c-4 -3 -7 -117 -7 -255 1 -137 -3 -262 -7 -277 -15 -43
-44 -48 -306 -47 -134 1 -245 -1 -249 -4 -4 -5 -7 -1696 -3 -1872 0 -20 4 -20
914 -20 503 0 917 3 921 7 5 5 10 2338 6 2458 -1 14 -70 16 -631 16 -347 0
-634 -2 -638 -6z m257 -896 c44 -55 33 -70 -181 -254 -98 -83 -178 -155 -178
-159 0 -3 35 -36 77 -71 97 -81 132 -111 153 -130 9 -8 42 -37 73 -63 68 -58
80 -78 72 -118 -7 -32 -47 -58 -80 -51 -17 4 -148 108 -211 167 -11 11 -41 36
-65 56 -173 144 -210 182 -205 210 3 13 5 27 5 30 2 12 37 45 136 129 55 47
111 95 125 107 179 154 204 173 231 173 18 0 35 -9 48 -26z m304 -13 c25 -21
73 -62 104 -89 32 -28 112 -96 178 -152 186 -159 186 -156 11 -305 -76 -65
-96 -82 -126 -108 -100 -88 -208 -175 -221 -179 -23 -9 -76 18 -84 42 -13 41
6 69 108 157 56 49 116 100 132 115 17 14 53 45 80 68 28 24 51 46 53 50 1 4
-23 29 -54 56 -32 27 -78 67 -104 89 -25 22 -75 65 -110 95 -99 84 -110 97
-110 125 0 32 41 75 72 75 13 0 45 -18 71 -39z"/>
<path d="M2507 4416 c-16 -17 -85 -89 -154 -159 -69 -70 -123 -130 -119 -134
7 -8 290 -8 303 0 9 5 11 313 2 320 -2 2 -17 -10 -32 -27z"/>
<path d="M5473 4839 c-18 -5 -45 -26 -60 -46 -28 -36 -28 -36 -31 -222 -3
-158 -1 -190 14 -223 46 -102 190 -107 248 -9 17 30 19 53 19 216 0 162 -2
187 -19 215 -37 64 -102 90 -171 69z"/>
<path d="M5459 4101 c-57 -27 -74 -65 -77 -173 -3 -83 -6 -98 -20 -99 -10 0
-51 -1 -93 -3 -52 -1 -85 -8 -103 -19 -59 -39 -84 -121 -56 -184 36 -80 67
-90 286 -88 160 1 172 2 202 24 60 42 65 66 66 266 0 171 -2 183 -24 223 -36
64 -112 87 -181 53z"/>
<path d="M4389 3821 c-1 -8 -1 -195 0 -246 l1 -41 228 1 c209 1 230 2 262 21
92 53 96 182 7 248 -27 20 -41 21 -263 22 -129 1 -234 -1 -235 -5z"/>
<path d="M4386 3249 c1 -87 5 -144 12 -148 5 -3 108 -6 229 -5 243 1 264 6
302 67 50 81 16 183 -72 216 -17 7 -118 11 -250 11 l-222 0 1 -141z"/>
<path d="M5174 3371 c-110 -67 -98 -225 20 -265 46 -16 356 -12 387 5 99 53
107 185 16 253 -26 19 -43 21 -211 23 -162 2 -185 0 -212 -16z"/>
<path d="M4387 2810 c1 -78 3 -144 6 -146 2 -3 104 -5 226 -5 198 0 227 2 259
19 66 34 93 121 58 192 -35 73 -43 75 -311 78 l-240 3 2 -141z"/>
<path d="M5190 2942 c-51 -23 -78 -58 -89 -115 -7 -37 -4 -52 13 -88 31 -61
71 -79 178 -79 l88 0 0 -90 c0 -118 20 -161 90 -191 61 -27 135 -1 172 60 20
32 22 48 21 215 0 214 -8 242 -77 276 -38 18 -61 20 -212 19 -93 0 -176 -3
-184 -7z"/>
<path d="M5450 2198 c-65 -44 -71 -68 -68 -285 l3 -192 33 -34 c40 -41 84 -56
135 -45 40 8 63 26 92 71 16 25 18 52 18 213 0 156 -2 189 -17 216 -25 46 -59
68 -114 74 -39 5 -53 2 -82 -18z"/>
</g>
</svg>
