<?xml version="1.0" standalone="no"?>
<!DOCTYPE svg PUBLIC "-//W3C//DTD SVG 20010904//EN"
 "http://www.w3.org/TR/2001/REC-SVG-20010904/DTD/svg10.dtd">
<svg version="1.0" xmlns="http://www.w3.org/2000/svg"
 width="700.000000pt" height="700.000000pt" viewBox="0 0 700.000000 700.000000"
 preserveAspectRatio="xMidYMid meet">
<metadata>
Created by potrace 1.14, written by Peter Selinger 2001-2017
</metadata>
<g transform="translate(0.000000,700.000000) scale(0.100000,-0.100000)"
fill="#000000" stroke="none">
<path d="M2985 6980 c-55 -10 -147 -29 -205 -43 -58 -14 -158 -37 -223 -52
-393 -88 -870 -334 -1283 -662 -141 -112 -428 -398 -534 -533 -358 -451 -600
-1002 -714 -1623 -25 -134 -26 -150 -26 -566 0 -475 3 -513 75 -807 164 -678
572 -1358 1086 -1810 275 -242 599 -444 934 -584 55 -23 136 -57 179 -77 173
-77 369 -128 722 -187 143 -24 172 -26 500 -26 258 0 375 4 449 15 380 57 754
169 1042 311 586 291 1082 714 1416 1212 265 394 431 807 550 1372 l30 145 4
400 c4 371 3 411 -17 530 -109 675 -372 1272 -771 1750 -534 638 -1384 1116
-2208 1240 -156 23 -868 20 -1006 -5z m-316 -2811 c284 -46 483 -213 611 -514
34 -80 34 -81 35 -240 0 -183 -11 -239 -74 -370 -72 -153 -191 -265 -376 -355
-81 -39 -117 -51 -190 -61 -106 -14 -257 -7 -347 16 -232 60 -415 236 -520
500 -31 78 -32 84 -32 235 1 179 18 264 81 388 40 80 142 197 222 257 56 40
187 108 263 135 62 22 223 26 327 9z m1776 -15 c211 -54 392 -226 508 -487
l42 -92 0 -165 c0 -186 -11 -243 -72 -367 -72 -148 -196 -264 -378 -353 -76
-37 -119 -51 -178 -59 -388 -53 -674 94 -850 437 -58 112 -71 177 -71 337 1
148 15 218 70 332 60 127 159 235 301 331 65 44 190 83 324 102 81 11 226 4
304 -16z m1339 -12 c47 -22 86 -51 127 -93 l58 -60 55 54 c75 75 178 126 272
134 239 20 423 -130 454 -368 5 -40 10 -318 10 -616 l0 -543 -225 0 -225 0 -1
388 c-1 213 -4 452 -8 532 l-6 145 -29 10 c-25 8 -31 6 -52 -18 l-24 -28 0
-515 0 -514 -219 0 -218 0 -5 527 c-5 493 -7 527 -24 540 -31 22 -62 16 -79
-17 -13 -25 -15 -101 -15 -540 l0 -510 -221 0 -221 0 4 608 3 607 32 67 c50
107 126 181 232 225 49 21 69 23 156 21 88 -3 108 -7 169 -36z m-4813 -11
c256 -20 466 -132 583 -310 87 -132 122 -261 114 -424 -18 -365 -215 -631
-533 -717 -58 -16 -121 -23 -227 -27 l-148 -6 0 222 0 221 39 0 c89 0 197 22
259 51 78 38 124 102 143 197 29 152 -27 265 -165 332 -43 20 -68 24 -197 28
l-149 5 0 -527 0 -526 -230 0 -230 0 0 745 0 745 313 0 c171 0 364 -5 428 -9z"/>
<path d="M2410 3704 c-119 -67 -175 -168 -175 -314 1 -91 30 -160 101 -239 53
-59 110 -81 209 -81 90 0 151 24 210 84 78 79 100 132 100 241 -1 100 -14 149
-57 212 -72 107 -280 158 -388 97z"/>
<path d="M4098 3708 c-131 -70 -181 -155 -182 -308 -1 -72 3 -94 26 -142 15
-32 48 -80 74 -108 56 -60 112 -80 218 -80 119 0 199 52 272 176 27 45 29 57
29 149 -1 85 -5 108 -26 155 -54 115 -135 164 -309 184 -37 4 -55 -1 -102 -26z"/>
</g>
</svg>
